<svg xmlns="http://www.w3.org/2000/svg" viewBox="0 0 512.007 512.007"><circle cx="256.003" cy="256.003" r="256.003" fill="#41b4e6"/><path fill="#0091c8" d="M256 113.376c-87.142 0-160.539 61.059-160.539 139.536 0 33.252 13.244 64.66 37.559 89.741l-.02.02 165.755 165.755c108.891-18.311 194.446-105.355 210.512-214.992L372.806 156.972l-.091.091c-29.116-26.826-70.419-43.687-116.715-43.687z"/><path fill="#fff" d="M355.328 365.442c-2.404-5.03-1.051-11.044 3.316-14.509 31.404-24.923 49.692-60.433 49.692-97.863 0-72.454-67.293-132.406-152.335-132.406-82.69 0-152.335 57.939-152.335 132.406 0 35.672 16.052 69.113 45.202 94.165 28.692 24.66 66.74 38.24 107.135 38.24 15.31 0 30.352-1.958 44.83-5.827 2.167-.579 4.477-.253 6.443.824 28.266 15.501 43.181 12.357 69.698 9.773-9.346-7.063-17.347-15.805-21.646-24.803z"/><g fill="#00558c"><path d="M298.522 293.957c-14.267 5.416-27.712 8.534-42.997 8.096-30.627-.862-51.312-7.138-74.182-31.403 3.74 37.062 47.532 53.999 75.009 53.607 40.42-1.488 71.688-25.042 74.303-53.607-8.024 8.904-13.489 15.01-32.133 23.307z"/><path d="M357.423 361.108c37.209-26.386 59.116-66.141 59.116-108.197 0-76.355-70.917-139.536-160.539-139.536-87.142 0-160.539 61.059-160.539 139.536 0 37.593 16.917 72.835 47.635 99.236 30.237 25.988 70.334 40.3 112.903 40.3 17.375 0 34.424-2.393 50.753-7.117 31.949 18.421 57.846 13.226 86.8 10.405-21.38-17.781-27.998-22.196-36.129-34.627zm-17.633 13.566c-14.935-3.368-24.015-9.787-29.886-13.591-15.954 5.123-31.404 9.166-53.904 9.166-76.281 0-138.339-52.637-138.339-117.336S179.719 135.577 256 135.577s138.339 52.637 138.339 117.336c0 37.546-21.49 73.131-57.487 95.187l-8.614 5.278c4.662 9.507 6.739 14.201 11.552 21.296z"/></g></svg>