<svg xmlns="http://www.w3.org/2000/svg" viewBox="0 0 512 512"><path fill="#1a91a1" d="M256 0c141.385 0 256 114.615 256 256S397.385 512 256 512C114.612 512 0 397.385 0 256S114.615 0 256 0z"/><path fill="#c8cacc" d="M223.11 380.281l-9.629 37.805-32.36 27.14v5.815h149.764v-5.815l-32.36-27.14-9.629-37.805-32.892-.483-32.894.483z"/><path fill="#fff" d="M181.121 445.226v5.815h149.761v-5.815H181.121z"/><path fill="#666" d="M88.928 119.077h334.15c10.98 0 19.961 8.981 19.961 19.961v205.84H68.969v-205.84c0-10.98 8.981-19.961 19.961-19.961h-.002z"/><path fill="#15bdb1" d="M82.52 331.32h346.963V139.035c0-3.499-2.909-6.408-6.405-6.408H88.928c-3.499 0-6.405 2.909-6.405 6.408V331.32h-.003z"/><path d="M443.036 344.875v21.829c0 10.98-9.899 19.961-22.004 19.961H90.968c-12.103 0-22.002-8.981-22.002-19.961v-21.829h374.07zM257.151 170.102c20.137 0 38.372 8.163 51.568 21.359 13.196 13.196 21.359 31.431 21.359 51.568 0 20.139-8.163 38.372-21.359 51.568-13.194 13.196-31.431 21.359-51.568 21.359-20.139 0-38.375-8.163-51.571-21.359-13.194-13.196-21.359-31.431-21.359-51.568 0-20.139 8.163-38.372 21.359-51.568 13.197-13.194 31.432-21.359 51.571-21.359zm57.074 110.622c.407.22.687.59.803 1.005a69.304 69.304 0 0 0 11.72-37.018h-27.597c-.218 9.999-2.201 19.972-5.952 29.309 8.433 1.605 15.741 3.838 21.026 6.704zm-.658 3.106a1.647 1.647 0 0 1-.921-.197c-5.157-2.796-12.388-4.963-20.772-6.51a81.848 81.848 0 0 1-2.439 4.947c-6.56 12.202-16.436 22.891-29.616 30.524 18.164-.685 34.548-8.328 46.561-20.339a70.062 70.062 0 0 0 7.187-8.428v.003zm-59.083 28.767c-13.181-7.633-23.059-18.322-29.616-30.524a79.738 79.738 0 0 1-2.429-4.926c-8.37 1.545-15.604 3.706-20.795 6.487a1.66 1.66 0 0 1-.91.189 70.255 70.255 0 0 0 7.192 8.433c12.013 12.013 28.399 19.654 46.561 20.339l-.003.002zm-55.204-30.863c.115-.42.396-.792.811-1.012 5.317-2.849 12.617-5.073 21.026-6.676-3.761-9.348-5.747-19.329-5.965-29.338h-27.597a69.243 69.243 0 0 0 11.725 37.024v.002zm-11.725-40.336h27.589c.191-10.825 2.458-21.611 6.794-31.591-8.711-1.608-16.284-3.866-21.766-6.786a69.278 69.278 0 0 0-12.619 38.377h.002zm14.603-41.063c5.346 2.752 12.722 4.879 21.204 6.384a76.223 76.223 0 0 1 1.642-3.192c6.558-12.047 16.373-22.571 29.451-30.068-18.154.692-34.524 8.333-46.532 20.341a70.304 70.304 0 0 0-5.765 6.535zm57.69-26.876c13.078 7.494 22.896 18.02 29.451 30.068a81.231 81.231 0 0 1 1.655 3.213c8.504-1.503 15.877-3.641 21.189-6.408a70.095 70.095 0 0 0-5.765-6.534C294.37 181.79 278 174.149 259.846 173.457l.002.002zm54.286 29.567c-5.448 2.933-13.021 5.204-21.758 6.809 4.333 9.973 6.592 20.751 6.783 31.563h27.589a69.286 69.286 0 0 0-12.614-38.372zm-55.327-26.351v32.756c9.973-.066 19.872-.776 28.743-2.13a78.922 78.922 0 0 0-1.149-2.198c-6.172-11.342-15.371-21.275-27.594-28.428zm0 36.069v28.651h37.055c-.194-10.634-2.474-21.225-6.836-30.988-9.317 1.487-19.743 2.266-30.217 2.337h-.002zm0 31.964v26.246c10.794.071 21.54.894 31.067 2.473 3.764-9.131 5.758-18.909 5.98-28.719h-37.047zm0 29.556v35.101c12.302-7.284 21.545-17.372 27.72-28.861a76.052 76.052 0 0 0 1.98-3.958c-9.115-1.453-19.371-2.211-29.703-2.282h.003zm-3.311 35.101v-35.101c-10.319.079-20.57.847-29.69 2.303a75.255 75.255 0 0 0 1.97 3.937c6.178 11.489 15.418 21.58 27.72 28.861zm0-38.409V244.71h-37.045c.22 9.818 2.219 19.61 5.991 28.745 9.537-1.584 20.276-2.418 31.056-2.5h-.002zm0-29.558v-28.654c-10.461-.081-20.882-.868-30.204-2.361-4.373 9.768-6.657 20.37-6.849 31.014h37.053zm0-31.967v-32.753c-12.223 7.153-21.422 17.086-27.594 28.428a83.188 83.188 0 0 0-1.138 2.174c8.879 1.359 18.775 2.077 28.732 2.153v-.002z" fill="#fff"/><path fill="#fbb429" d="M6.14 78.092h240.091v154.052H6.14V78.092z"/><path fill="#20d0c2" d="M460.138 307.959h14.859V169.412h-14.859v138.547z"/><path d="M467.577 337.473l7.42-29.514H460.14l7.437 29.514zm-4.388-181.58h8.758c2.408 0 4.378 2.321 4.378 5.157v64.41h-17.519v-64.41c0-2.835 1.97-5.157 4.38-5.157h.003z" fill="#fbb429"/><path fill="#666" d="M467.273 339.606h.616l2.471-13.199h-5.542l2.452 13.199h.003z"/><path fill="#ff5b61" d="M458.813 167.009l21.409.165 1.348.01v50.041l-.249.42-2.028 3.415c-1.039 1.584-3.208.367-2.209-1.818l1.781-2.998v-45.905l-20.063-.155.01-3.174v-.001z"/><path fill="#dfe1e3" d="M242.394 78.092H126.19v148.105h116.204V78.092z"/><path fill="#fff" d="M235.48 78.092c-35.515 0-69.439-15.536-106.552 0v138.733H235.48V78.092z"/><path fill="#dfe1e3" d="M9.981 78.092h116.207v148.105H9.981V78.092z"/><path fill="#fff" d="M16.892 78.092c36.428 0 89.08-15.266 109.295 0v138.733H16.892V78.092z"/><path fill="#20d0c2" d="M26.233 85.772h58.354v8.019H26.233v-8.019z"/><g fill="#c8cacc"><path d="M26.233 143.187h84.361v2.759H26.233v-2.759zm112.419 0h84.364v2.759h-84.364v-2.759zm0-36.383h84.364v2.759h-84.364v-2.759zm0 27.819h36.94v2.757h-36.94v-2.757zm0-5.566h84.364v2.759h-84.364v-2.759zm0-5.563h84.364v2.759h-84.364v-2.759zm0-5.564h36.94v2.759h-36.94v-2.759zm0-5.563h84.364v2.759h-84.364v-2.759zm0 58.635h29.034v2.759h-29.034v-2.759zm0-5.561h84.364v2.757h-84.364v-2.757zm0-5.564h84.364v2.757h-84.364v-2.757zm0-5.566h84.364v2.759h-84.364v-2.759zm0-5.563h84.364v2.757h-84.364v-2.757zM26.233 106.801h84.361v2.759H26.233v-2.759zm0 27.819h36.94v2.757h-36.94v-2.757zm0-5.566h84.361v2.759H26.233v-2.759zm0-5.563h84.361v2.759H26.233v-2.759zm0-5.563h84.361v2.759H26.233v-2.759zm0-5.564h84.361v2.759H26.233v-2.759zm0 58.635h29.034v2.759H26.233v-2.759zm0-5.561h84.361v2.757H26.233v-2.757zm0-5.563h84.361v2.757H26.233v-2.757zm0-5.566h84.361v2.759H26.233v-2.759zm0-5.564h84.361v2.757H26.233v-2.757zM361.437 46.107l75.503 36.415c3.992 3.045 2.833 21.847 2.35 25.346-.485 3.502-2.867 2.274-5.49-.454s5.582-18.621-1.112-21.524l-83.425-36.184c.818-1.492 2.067-3.019 3.525-3.494 2.096-.685 4.462-.858 8.648-.102v-.003z"/><path d="M461.557 80.319l-82-17.401c-5.02-.034-15.609 15.541-17.37 18.608-1.757 3.064.876 3.552 4.622 3.001 3.746-.551 6.98-18.143 14.054-16.344l88.122 22.429c.268-1.679.212-3.651-.651-4.918-1.235-1.823-3.003-3.413-6.775-5.375h-.002z"/></g><path fill="#ecf0f1" d="M467.572 94.738c-.832 1.49-1.652 2.988-2.468 4.459a2003.72 2003.72 0 0 0-4.559 8.244c-6.29 11.442-28.638 6.715-36.837-.071a9.984 9.984 0 0 1-1.005-.957c-2.028-2.222-3.19-5.361-3.885-8.244-.839-3.489-1.144-7.166-1.235-10.749-.058-2.232.092-4.719-.029-6.959.079-.349.165-.692.257-1.026l14.878 6.455c6.697 2.904-1.511 18.794 1.112 21.522 2.623 2.731 5.005 3.955 5.49.454.485-3.499 1.642-22.301-2.353-25.346l-.294-.142 32.339 8.234a12.443 12.443 0 0 1-1.409 4.126h-.002zM422.01 71.923l39.542 8.391c-10.547-5.49-29.488-9.642-37.207-10.169a12.421 12.421 0 0 0-2.335 1.778zm-74.16-18.094c-.252 1.687-.522 3.373-.774 5.036-.475 3.106-.952 6.209-1.443 9.312-2.028 12.9 18.542 22.836 29.181 22.487a9.828 9.828 0 0 0 1.38-.144c2.964-.514 5.807-2.287 8.118-4.144 2.796-2.245 5.291-4.965 7.557-7.743 1.411-1.731 2.817-3.79 4.278-5.487.155-.325.294-.651.428-.968l-15.712-4c-7.074-1.799-10.306 15.79-14.054 16.344-3.746.551-6.379.063-4.622-3.001 1.76-3.064 12.349-18.642 17.372-18.608l.323.068-30.616-13.278a12.374 12.374 0 0 0-1.411 4.129l-.005-.003zm49.994 9.837l-36.41-17.561c11.704 2.114 29.223 10.421 35.652 14.728.328.821.603 1.765.758 2.833z"/><path fill="#0e7886" d="M348.023 37.464c9.162.194 47.324 12.402 51.219 16.764.433.485 9.047 6.19 9.036 6.206l3.638 1.54 3.819 1.007c.005-.018 10.306.74 10.946.622 5.734-1.062 43.172 12.548 50.7 18.033 2.109.837 4.255 1.794 4.205 2.201.252 1.044-2.631 7.449-2.922 7.659-.231.081-1.272.071-2.883-.003-.351.315-.721.75-1.086 1.348-1.513 2.481-7.536 13.383-9.584 17.112-8.074 14.686-33.96 10.35-44.733 1.432-9.726-8.047-7.746-27.604-8.081-31.337-.066-.734.029-1.844.226-3.153-1.437-1.663-3.276-3.449-4.533-3.434-.984-.784-3.533-.493-5.687-.058-.648 1.154-1.254 2.091-1.752 2.631-2.547 2.749-12.95 19.426-25.566 19.84-13.978.459-37.105-11.95-34.503-28.509.661-4.205 2.571-16.509 2.891-19.4a9.235 9.235 0 0 0 .037-1.831c-1.12-.797-1.818-1.332-1.938-1.521-.102-.346 1.537-7.174 2.374-7.845.194-.328 2.159.123 4.173.69l.004.006zm-.171 16.365c-.252 1.689-.522 3.376-.774 5.039-.475 3.106-.952 6.209-1.44 9.312-2.03 12.9 18.539 22.839 29.178 22.487a9.828 9.828 0 0 0 1.38-.144c2.964-.514 5.807-2.287 8.118-4.142 2.799-2.248 5.291-4.968 7.557-7.746 1.411-1.731 2.817-3.788 4.278-5.49 2.542-5.437 2.038-9.574.942-12.31-8.611-5.773-37.147-18.728-44.906-14.335-1.973 1.117-3.83 4.05-4.333 7.331v-.002zm119.722 40.909c1.611-2.901 1.936-6.358 1.06-8.446-3.449-8.223-33.944-15.439-44.289-16.145-2.542 1.495-5.472 4.456-6.791 10.314.118 2.237-.029 4.727.026 6.959.092 3.583.396 7.263 1.235 10.749.695 2.883 1.857 6.022 3.885 8.244a9.77 9.77 0 0 0 1.005.957c8.199 6.786 30.547 11.515 36.837.071 1.513-2.752 3.032-5.5 4.559-8.244.818-1.474 1.639-2.969 2.471-4.459h.002z"/></svg>