<svg xmlns="http://www.w3.org/2000/svg" width="512pt" height="512pt" viewBox="0 0 512 512"><path fill="#025f80" d="M512 256c0 141.387-114.613 256-256 256S0 397.387 0 256 114.613 0 256 0s256 114.613 256 256zm0 0"/><path fill="#3691bb" d="M430.258 428.219h-180c-5.524 0-10-4.477-10-10v-100c0-5.524 4.476-10 10-10h180c5.52 0 10 4.476 10 10v100c0 5.523-4.48 10-10 10zm0 0"/><path fill="#0ed1b2" d="M172.57 104.8c-6.875.856-12.047 6.688-12.074 13.622a13.786 13.786 0 0 0 11.59 13.656l5.812.934a83.675 83.675 0 0 0 3.774 14.52l-4.426 3.347a13.783 13.783 0 0 0-3.644 17.832 13.78 13.78 0 0 0 16.863 6.031l5.512-2.097a84.581 84.581 0 0 0 10.527 10.664l-2.168 5.132c-2.695 6.387-.23 13.782 5.758 17.27 5.863 3.41 13.34 2.05 17.62-3.211l3.712-4.555a83.318 83.318 0 0 0 14.465 3.97l.687 5.515a13.781 13.781 0 0 0 13.621 12.074 13.777 13.777 0 0 0 13.656-11.59l.934-5.812a83.326 83.326 0 0 0 14.52-3.774l3.347 4.426a13.774 13.774 0 0 0 17.832 3.644 13.78 13.78 0 0 0 6.032-16.863l-2.098-5.508a84.874 84.874 0 0 0 10.664-10.53l5.133 2.167c6.386 2.7 13.777.23 17.265-5.758a13.78 13.78 0 0 0-3.207-17.62l-4.554-3.708a83.318 83.318 0 0 0 3.968-14.465l5.516-.687a13.781 13.781 0 0 0 12.074-13.621 13.777 13.777 0 0 0-11.59-13.657l-5.812-.937c-.832-5-2.102-9.856-3.774-14.516l4.426-3.347a13.78 13.78 0 0 0-13.219-23.864l-5.507 2.098a84.352 84.352 0 0 0-10.532-10.664l2.168-5.137c2.7-6.383.23-13.777-5.757-17.265a13.784 13.784 0 0 0-17.622 3.207l-3.707 4.558a83.675 83.675 0 0 0-14.464-3.972l-.692-5.516a13.772 13.772 0 0 0-13.62-12.07 13.772 13.772 0 0 0-13.653 11.586l-.938 5.812c-5 .832-9.855 2.102-14.515 3.774l-3.348-4.422a13.784 13.784 0 0 0-17.836-3.649 13.78 13.78 0 0 0-6.031 16.863l2.101 5.512a84.878 84.878 0 0 0-10.668 10.528l-5.132-2.168A13.779 13.779 0 1 0 177.5 85.938l4.555 3.71a83.666 83.666 0 0 0-3.97 14.465zm88.442-17.241c17.425.066 31.496 14.246 31.43 31.671s-14.247 31.5-31.672 31.43c-17.426-.062-31.5-14.246-31.43-31.672.066-17.425 14.246-31.496 31.672-31.43zm0 0"/><path fill="#0ab59e" d="M202.176 118.887c-.125 32.43 26.062 58.816 58.492 58.937 32.426.125 58.812-26.062 58.937-58.492.125-32.43-26.066-58.816-58.492-58.937-32.43-.125-58.816 26.066-58.937 58.492zm58.867-40.012c22.219.086 40.168 18.168 40.082 40.387-.086 22.222-18.168 40.168-40.387 40.086-22.222-.086-40.168-18.168-40.086-40.391.086-22.219 18.168-40.168 40.391-40.082zm0 0"/><path fill="#01988c" d="M269.809 177.148c-2.98.454-6.032.692-9.141.676-32.43-.12-58.617-26.508-58.492-58.937.12-32.426 26.508-58.614 58.937-58.492 2.95.011 5.852.246 8.684.675-28.106 4.285-49.688 28.5-49.797 57.817-.11 29.476 21.516 53.957 49.809 58.261zm0 0"/><path fill="#f18bc3" d="M446.258 311.719h-200c-5.524 0-10-4.477-10-10v-150c0-5.524 4.476-10 10-10h200c5.52 0 10 4.476 10 10v150c0 5.523-4.48 10-10 10zm0 0"/><path fill="#f5a6d1" d="M456.258 151.719v150c0 5.523-4.48 10-10 10h-99.653l-22.718 40.094a12.629 12.629 0 0 1-10.992 6.406c-6.98 0-12.637-5.656-12.637-12.633v-33.867h-34c-5.524 0-10-4.477-10-10v-150c0-5.524 4.476-10 10-10h180c5.52 0 10 4.48 10 10zm0 0"/><path fill="#ec74b6" d="M430 185.219v11c0 1.105-.895 2-2 2H320.332c-1.102 0-2-.895-2-2v-11c0-1.102.898-2 2-2H428c1.105 0 2 .898 2 2zm-2 58H307c-1.105 0-2 .898-2 2v11c0 1.105.895 2 2 2h121c1.105 0 2-.895 2-2v-11c0-1.102-.895-2-2-2zm0 30h-87.668c-1.102 0-2 .898-2 2v11c0 1.105.898 2 2 2H428c1.105 0 2-.895 2-2v-11c0-1.102-.895-2-2-2zm0-60H282c-1.105 0-2 .898-2 2v11c0 1.105.895 2 2 2h146c1.105 0 2-.895 2-2v-11c0-1.102-.895-2-2-2zm0 0"/><path fill="#fc6930" d="M296.258 438.219h-250c-5.524 0-10-4.477-10-10v-140c0-5.524 4.476-10 10-10h250c5.52 0 10 4.476 10 10v140c0 5.523-4.48 10-10 10zm0 0"/><path fill="#fd7d43" d="M306.258 288.219v177.367c0 6.976-5.66 12.633-12.637 12.633a12.64 12.64 0 0 1-10.996-6.406l-19.035-33.594H67.023c-5.52 0-10-4.477-10-10v-140c0-5.524 4.48-10 10-10h229.235c5.52 0 10 4.48 10 10zm0 0"/><path fill="#fc5426" d="M290.258 340.219v11c0 1.105-.899 2-2 2h-66c-1.106 0-2-.895-2-2v-11c0-1.106.894-2 2-2h66c1.101 0 2 .898 2 2zm-2 28H182c-1.105 0-2 .894-2 2v11c0 1.105.895 2 2 2h106.258c1.101 0 2-.895 2-2v-11c0-1.102-.899-2-2-2zm0 30h-84.73c-1.102 0-2 .894-2 2v11c0 1.105.898 2 2 2h84.73c1.101 0 2-.895 2-2v-11c0-1.102-.899-2-2-2zm0 0"/><path fill="#fded32" d="M178.14 327.305c-16.046 14.261-24.968 34.898-24.968 56.37v1.462H84.879v-1.727c0-21.652-9.457-42.082-25.524-56.601-18.113-16.364-29.46-40.075-29.355-66.43.2-49.09 39.941-88.66 89.023-88.66 49.168.004 89.024 39.86 89.024 89.023.004 26.48-11.559 50.254-29.906 66.563zm0 0"/><path fill="#fdf385" d="M153.172 383.672v1.465H108.05v-1.727c0-21.652-9.457-42.082-25.524-56.601-18.113-16.368-29.46-40.075-29.355-66.434.183-45.152 33.828-82.254 77.43-87.906 43.699 5.676 77.449 43.035 77.449 88.277 0 26.477-11.563 50.25-29.91 66.559-16.047 14.261-24.97 34.898-24.97 56.367zm0 0"/><path fill="#fdf7bd" d="M139.555 193.063c3.304-4.344 24.367 2.43 37.394 17.074 11.168 12.543 16.363 30.773 12.196 33.738-5.125 3.652-24.422-15.844-28.454-19.918-2.43-2.453-25.242-25.508-21.136-30.894zm0 0"/><path fill="#e8ce00" d="M141.523 253.219h-45c-13.785 0-25 11.215-25 25 0 11.027 8.973 20 20 20 2.758 0 5 2.246 5 5v65c0 11.027 8.973 20 20 20h5c11.028 0 20-8.973 20-20v-65c0-2.754 2.243-5 5-5 11.028 0 20-8.973 20-20 0-13.785-11.214-25-25-25zm5 30c-11.027 0-20 8.972-20 20v65c0 2.758-2.242 5-5 5h-5c-2.757 0-5-2.242-5-5v-65c0-11.028-8.972-20-20-20-2.757 0-5-2.242-5-5 0-5.512 4.489-10 10-10h45c5.516 0 10 4.488 10 10 0 2.758-2.242 5-5 5zm0 0"/><path fill="#88b9d3" d="M164.758 379.035c0 5.461-3.59 10.082-8.54 11.637v.558c0 16.84-13.648 30.489-30.488 30.489h-13.414c-16.84 0-30.488-13.649-30.488-30.489v-.558c-4.945-1.555-8.539-6.176-8.539-11.637 0-6.734 5.461-12.191 12.195-12.191h67.075c6.738 0 12.199 5.457 12.199 12.191zm0 0"/><path d="M164.758 379.035c0 5.461-3.59 10.082-8.54 11.637v.558c0 14.641-10.32 26.868-24.085 29.81-9.168-1.958-16.813-8.044-20.89-16.216-1.02-2.043.429-4.445 2.71-4.445h27.328a4.575 4.575 0 0 0 4.57-4.715c-.074-2.504-2.257-4.434-4.761-4.434h-37.918c-6.734 0-12.195-5.46-12.195-12.195s5.46-12.195 12.195-12.195h49.39c6.735.004 12.196 5.46 12.196 12.195zm0 0M392.758 388.219a7.5 7.5 0 0 1-7.5 7.5 7.497 7.497 0 0 1-7.5-7.5 7.5 7.5 0 1 1 15 0zm17.5-7.5a7.5 7.5 0 0 0-7.5 7.5c0 4.144 3.355 7.5 7.5 7.5a7.5 7.5 0 1 0 0-15zm25 0a7.5 7.5 0 0 0-7.5 7.5c0 4.144 3.355 7.5 7.5 7.5a7.5 7.5 0 1 0 0-15zm0 0" fill="#b3d1e1"/></svg>