<svg xmlns="http://www.w3.org/2000/svg" width="512pt" height="512pt" viewBox="-11 0 512 512">
    <path fill="#06daf7" d="M245 22C109.691 22 0 131.691 0 267c0 127.55 97.477 232.32 222 243.918h46C392.523 499.32 490 394.551 490 267c0-135.309-109.691-245-245-245zm0 0"/>
    <path fill="#284cb2" d="M245 29.664c-5.523 0-10-4.477-10-10V10c0-5.523 4.477-10 10-10s10 4.477 10 10v9.664c0 5.523-4.477 10-10 10zm0 0"/>
    <path fill="#1d3ba8" d="M227.688 112.082h34.625v304.035h-34.625zm0 0"/>
    <path fill="#122894" d="M227.688 112.082v121.996c0-9.562 7.75-17.312 17.312-17.312s17.313 7.75 17.313 17.312V112.082zm0 304.035L222 454.434h46l-5.688-38.317zm0 0"/>
    <path fill="#fce275" d="M225.813 87.082h38.375c12.019-6.73 20.144-19.578 20.144-34.332 0-21.723-17.61-39.332-39.332-39.332s-39.332 17.61-39.332 39.332c0 14.754 8.125 27.602 20.145 34.332zm0 0"/>
    <path fill="#f9ce00" d="M259.86 68.75c-15.282 0-27.669-12.387-27.669-27.668 0-12.945 8.891-23.809 20.899-26.828a39.414 39.414 0 0 0-8.09-.84c-21.723 0-39.336 17.61-39.336 39.332 0 14.758 8.129 27.606 20.149 34.336h38.375c11.656-6.527 19.628-18.816 20.097-33.012-4.648 8.735-13.844 14.68-24.426 14.68zm0 0"/>
    <path fill="#1d3ba8" d="M304.293 151.414h-41.98c-5.524 0-10-4.476-10-10 0-5.52 4.476-10 10-10h41.98c5.523 0 10 4.48 10 10 0 5.524-4.477 10-10 10zm0 0"/>
    <path fill="#284cb2" d="M227.688 151.414h-41.981c-5.523 0-10-4.476-10-10 0-5.52 4.477-10 10-10h41.98c5.524 0 10 4.48 10 10 0 5.524-4.476 10-10 10zm0 0"/>
    <path fill="#1d3ba8" d="M304.293 426.117h-41.98c-5.524 0-10-4.476-10-10 0-5.52 4.476-10 10-10h41.98c5.523 0 10 4.48 10 10 0 5.524-4.477 10-10 10zm0 0"/>
    <path fill="#284cb2" d="M227.688 426.117h-41.981c-5.523 0-10-4.476-10-10 0-5.52 4.477-10 10-10h41.98c5.524 0 10 4.48 10 10 0 5.524-4.476 10-10 10zm0 0"/>
    <path fill="#e8f3fc" d="M307.848 280.547v127.898H456.68V280.547c-22.63 7.531-47.84 11.734-74.414 11.734-26.579 0-51.786-4.203-74.418-11.734zm0 0"/>
    <g fill="#b7dbf6">
        <path d="M349.754 377.488v-87.355c-14.684-1.957-28.734-5.203-41.906-9.586v127.898h65.742c-13.719-3.617-23.836-16.101-23.836-30.957zm0 0"/>
        <path d="M406.254 368.781h-47.977a7.5 7.5 0 1 1 0-15h47.977a7.5 7.5 0 1 1 0 15zm0-30h-47.977a7.5 7.5 0 1 1 0-15h47.977a7.5 7.5 0 1 1 0 15zm0 0"/>
    </g>
    <path fill="#f9ce00" d="M307.848 282.547c22.632 7.531 47.84 11.734 74.418 11.734s51.785-4.203 74.418-11.734V149.262H307.848zm0 0"/>
    <path fill="#f4b500" d="M349.754 180.219c0-14.856 10.117-27.344 23.836-30.957h-65.742v133.285c13.172 4.383 27.222 7.629 41.906 9.586zm0 0"/>
    <path fill="#fcecac" d="M414.777 221.992c0 17.957-14.554 32.512-32.511 32.512s-32.512-14.555-32.512-32.512c0-17.953 14.555-32.512 32.512-32.512s32.511 14.56 32.511 32.512zm0 0"/>
    <path fill="#fce275" d="M393.36 232.313c-11.829 0-21.419-9.586-21.419-21.415 0-10.132 7.043-18.597 16.493-20.828-2-.382-4.059-.59-6.168-.59-17.957 0-32.512 14.555-32.512 32.512s14.555 32.512 32.512 32.512c17.953 0 32.511-14.555 32.511-32.512 0-2.11-.21-4.172-.593-6.168-2.227 9.45-10.696 16.488-20.825 16.488zm0 0"/>
    <path fill="#406bcc" d="M456.68 154.914H307.848c-7.457 0-13.5-6.043-13.5-13.5 0-7.453 6.043-13.5 13.5-13.5H456.68c7.457 0 13.5 6.047 13.5 13.5 0 7.457-6.043 13.5-13.5 13.5zm0 274.703H307.848c-7.457 0-13.5-6.043-13.5-13.5s6.043-13.5 13.5-13.5H456.68c7.457 0 13.5 6.043 13.5 13.5s-6.043 13.5-13.5 13.5zm0 0"/>
    <path fill="#284cb2" d="M349.754 141.414c0-7.453 6.043-13.5 13.5-13.5h-55.406c-7.457 0-13.5 6.047-13.5 13.5 0 7.457 6.043 13.5 13.5 13.5h55.406c-7.457 0-13.5-6.043-13.5-13.5zm0 274.703c0-7.457 6.043-13.5 13.5-13.5h-55.406c-7.457 0-13.5 6.043-13.5 13.5s6.043 13.5 13.5 13.5h55.406c-7.457 0-13.5-6.043-13.5-13.5zm0 0"/>
    <path fill="#5488e2" d="M262.313 153.914h-34.625c-6.903 0-12.5-5.594-12.5-12.5 0-6.902 5.597-12.5 12.5-12.5h34.625c6.902 0 12.5 5.598 12.5 12.5 0 6.906-5.598 12.5-12.5 12.5zm0 0"/>
    <path fill="#1d3ba8" d="M222 510.918c7.574.703 15.242 1.082 23 1.082s15.426-.379 23-1.082v-35.484h-46zm0 0"/>
    <path fill="#122894" d="M245 493.719c10.41 0 19.316 6.41 23 15.5v-33.785h-46v33.785c3.684-9.09 12.59-15.5 23-15.5zm0 0"/>
    <path fill="#5488e2" d="M283.918 465.848c0-7.453-6.047-13.5-13.5-13.5h-50.832c-7.457 0-13.5 6.047-13.5 13.5 0 7.457 6.043 13.5 13.5 13.5h50.832c7.453 0 13.5-6.043 13.5-13.5zm0 0"/>
    <path fill="#406bcc" d="M241.582 465.848c0-7.453 6.047-13.5 13.5-13.5h-35.5c-7.453 0-13.5 6.047-13.5 13.5 0 7.457 6.047 13.5 13.5 13.5h35.5c-7.453 0-13.5-6.043-13.5-13.5zm0 0"/>
    <path fill="#f9ce00" d="M275.918 98.582c0-7.453-6.047-13.5-13.5-13.5h-34.832c-7.457 0-13.5 6.047-13.5 13.5 0 7.457 6.043 13.5 13.5 13.5h34.832c7.453 0 13.5-6.043 13.5-13.5zm0 0"/>
    <path fill="#f4b500" d="M243.895 98.582c0-7.453 6.042-13.5 13.5-13.5h-29.813c-7.453 0-13.5 6.047-13.5 13.5 0 7.457 6.047 13.5 13.5 13.5h29.813c-7.457 0-13.5-6.043-13.5-13.5zm0 0"/>
    <path fill="#406bcc" d="M252.305 128.914h-24.618c-6.902 0-12.5 5.598-12.5 12.5 0 6.906 5.598 12.5 12.5 12.5h24.618c-4.93-2.008-8.41-6.844-8.41-12.5 0-5.652 3.48-10.488 8.41-12.5zm0 0"/>
    <path fill="#5488e2" d="M262.313 428.617h-34.625c-6.903 0-12.5-5.597-12.5-12.5 0-6.902 5.597-12.5 12.5-12.5h34.625c6.902 0 12.5 5.598 12.5 12.5 0 6.903-5.598 12.5-12.5 12.5zm0 0"/>
    <path fill="#406bcc" d="M252.305 403.617h-24.618c-6.902 0-12.5 5.598-12.5 12.5 0 6.903 5.598 12.5 12.5 12.5h24.618c-4.93-2.008-8.41-6.844-8.41-12.5 0-5.652 3.48-10.488 8.41-12.5zm0 0"/>
    <path fill="#e8f3fc" d="M33.32 280.547v127.898h148.832V280.547c-22.632 7.531-47.84 11.734-74.418 11.734s-51.785-4.203-74.414-11.734zm0 0"/>
    <path fill="#b7dbf6" d="M75.223 377.488v-87.355c-14.68-1.957-28.73-5.203-41.903-9.586v127.898h65.74c-13.72-3.617-23.836-16.101-23.836-30.957zm0 0"/>
    <path fill="#b7dbf6" d="M131.723 368.781H83.746a7.5 7.5 0 1 1 0-15h47.977a7.5 7.5 0 1 1 0 15zm0-30H83.746a7.5 7.5 0 1 1 0-15h47.977a7.5 7.5 0 1 1 0 15zm0 0"/>
    <path fill="#ef4a8a" d="M33.32 282.547c22.63 7.531 47.84 11.734 74.414 11.734 26.579 0 51.786-4.203 74.418-11.734V149.262H33.32zm0 0"/>
    <path fill="#e5387f" d="M75.223 180.219c0-14.856 10.117-27.344 23.836-30.957H33.32v133.285c13.172 4.383 27.223 7.629 41.903 9.586zm0 0"/>
    <path fill="#fc7ba7" d="M140.246 221.992c0 17.957-14.555 32.512-32.512 32.512s-32.511-14.555-32.511-32.512c0-17.953 14.554-32.512 32.511-32.512s32.512 14.56 32.512 32.512zm0 0"/>
    <path fill="#f95d95" d="M118.832 232.313c-11.828 0-21.418-9.586-21.418-21.415 0-10.132 7.04-18.597 16.488-20.828a32.729 32.729 0 0 0-6.168-.59c-17.957 0-32.511 14.555-32.511 32.512s14.554 32.512 32.511 32.512 32.512-14.555 32.512-32.512c0-2.11-.207-4.172-.59-6.168-2.23 9.45-10.695 16.488-20.824 16.488zm0 0"/>
    <path fill="#406bcc" d="M182.152 154.914H33.32c-7.457 0-13.5-6.043-13.5-13.5 0-7.453 6.043-13.5 13.5-13.5h148.832c7.457 0 13.5 6.047 13.5 13.5 0 7.457-6.043 13.5-13.5 13.5zm0 274.703H33.32c-7.457 0-13.5-6.043-13.5-13.5s6.043-13.5 13.5-13.5h148.832c7.457 0 13.5 6.043 13.5 13.5s-6.043 13.5-13.5 13.5zm0 0"/>
    <path fill="#284cb2" d="M75.223 141.414c0-7.453 6.047-13.5 13.5-13.5H33.32c-7.457 0-13.5 6.047-13.5 13.5 0 7.457 6.043 13.5 13.5 13.5h55.403c-7.453 0-13.5-6.043-13.5-13.5zm0 274.703c0-7.457 6.047-13.5 13.5-13.5H33.32c-7.457 0-13.5 6.043-13.5 13.5s6.043 13.5 13.5 13.5h55.403c-7.453 0-13.5-6.043-13.5-13.5zm0 0"/>
</svg>
