<svg xmlns="http://www.w3.org/2000/svg" width="512pt" height="512pt" viewBox="0 0 512 512">
    <path fill="#2a51ff" d="M439.965 486.578l64.441 17.828-17.824-64.441C502.656 415.223 512 385.703 512 354c0-87.262-70.738-158-158-158s-158 70.738-158 158 70.738 158 158 158c31.703 0 61.223-9.344 85.965-25.422zm0 0"/>
    <path fill="#10beff" d="M195.5 0l-80 195.5 80 195.5C303.3 391 391 303.3 391 195.5S303.3 0 195.5 0zm0 0"/>
    <path fill="#5aecff" d="M0 195.5c0 35.133 9.352 69.34 27.11 99.371L.718 390.277l95.41-26.386C126.16 381.648 160.367 391 195.5 391V0C87.7 0 0 87.7 0 195.5zm0 0"/>
    <path d="M180.5 271h30v30h-30zm0 0"/>
    <path fill="#292c32" d="M180.5 204.395V241h15l10-25.168-10-25.168zm0 0M135.5 150h30c0-16.543 13.457-30 30-30l10-15-10-15c-33.086 0-60 26.914-60 60zm0 0"/>
    <path d="M195.5 90v30c16.543 0 30 13.457 30 30 0 8.52-3.469 16.383-9.766 22.145l-20.234 18.52V241h15v-23.395l25.488-23.328C248.387 182.93 255.5 166.793 255.5 150c0-33.086-26.914-60-60-60zm0 0"/>
</svg>
